<?xml version="1.0" encoding="utf-8"?>
<!-- Generator: Adobe Illustrator 14.0.0, SVG Export Plug-In . SVG Version: 6.00 Build 43363)  -->
<!DOCTYPE svg PUBLIC "-//W3C//DTD SVG 1.1//EN" "http://www.w3.org/Graphics/SVG/1.1/DTD/svg11.dtd">
<svg version="1.1" id="Layer_1" xmlns="http://www.w3.org/2000/svg" xmlns:xlink="http://www.w3.org/1999/xlink" x="0px" y="0px"
	 width="56.69px" height="56.69px" viewBox="0 0 56.69 56.69" enable-background="new 0 0 56.69 56.69" xml:space="preserve">
<rect y="-0.003" fill="#353535" width="56.693" height="56.693"/>
<path fill="#C1C4C2" d="M39.449,37.108l-8.766-8.766l8.766-8.766c0.476-0.476,0.611-1.118,0.363-1.717
	c-0.27-0.651-0.922-1.106-1.587-1.106c-0.409,0-0.794,0.168-1.112,0.487l-8.767,8.767l-8.766-8.767
	c-0.318-0.318-0.703-0.486-1.113-0.486c-0.665,0-1.317,0.455-1.587,1.105c-0.248,0.599-0.112,1.242,0.364,1.717l8.766,8.766
	l-8.766,8.766c-0.476,0.476-0.611,1.118-0.363,1.718c0.27,0.65,0.922,1.105,1.586,1.105c0.41,0,0.794-0.169,1.113-0.487l8.765-8.766
	l8.767,8.766c0.318,0.318,0.703,0.487,1.112,0.487h0.001c0.664,0,1.316-0.454,1.586-1.105
	C40.061,38.227,39.925,37.584,39.449,37.108z"/>
</svg>
