<?xml version="1.0" encoding="utf-8"?>
<!-- Generator: Adobe Illustrator 14.0.0, SVG Export Plug-In . SVG Version: 6.00 Build 43363)  -->
<!DOCTYPE svg PUBLIC "-//W3C//DTD SVG 1.1//EN" "http://www.w3.org/Graphics/SVG/1.1/DTD/svg11.dtd">
<svg version="1.1" id="Layer_1" xmlns="http://www.w3.org/2000/svg" xmlns:xlink="http://www.w3.org/1999/xlink" x="0px" y="0px"
	 width="28.35px" height="25.51px" viewBox="0 0 28.35 25.51" enable-background="new 0 0 28.35 25.51" xml:space="preserve">
<g>
	<path fill="#C4C7C5" d="M15.144,1.451c-0.699-0.497-1.339-0.533-1.924-0.106L6.346,6.348l-5.768,4.089
		C0.204,10.757,0.01,11.062,0,11.349v0.91c-0.01,0.693,0.271,1.099,0.842,1.211c0.093,0.019,0.194,0.029,0.304,0.032h1.57
		c0.118,0.002,0.218,0.035,0.296,0.103c0.1,0.082,0.168,0.217,0.207,0.401c0.012,0.057,0.021,0.119,0.027,0.185l-0.009,1.216
		l0.019,6.495l-0.01,1.325c0.003,0.097,0.014,0.188,0.029,0.272c0.111,0.62,0.505,0.939,1.185,0.959h19.388
		c0.796-0.009,1.213-0.419,1.25-1.231V14.19c0.041-0.455,0.219-0.685,0.53-0.688h1.57c0.775-0.02,1.157-0.435,1.147-1.243v-0.91
		c-0.012-0.287-0.205-0.592-0.579-0.912L15.144,1.451z M13.561,3.83c0.398-0.318,0.841-0.297,1.331,0.063l2.74,2.017
		c0.362,0.343,0.49,0.711,0.387,1.101l-1.119,3.504l-2.846-1.707c-0.326-0.166-0.502-0.057-0.53,0.325v6.745l-1.195-0.932
		c-0.204-0.153-0.383-0.063-0.539,0.267l-2.784,5.165l3.078-3.116l2.802,1.652l-0.005-0.003c0.375,0.201,0.556,0.067,0.547-0.401
		v-5.409l2.51,1.608c0.293,0.176,0.542,0.104,0.745-0.215l2.583-5.846l4.007,2.764h-1.595c-0.392,0.027-0.608,0.253-0.652,0.676
		v9.207c-0.022,0.724-0.341,1.083-0.959,1.074H6.211c-0.503-0.016-0.794-0.294-0.871-0.836c-0.011-0.074-0.018-0.154-0.02-0.238
		l0.005-0.902l-0.019-6.617l0.013-1.688c-0.008-0.069-0.019-0.134-0.036-0.193c-0.044-0.16-0.124-0.279-0.239-0.36
		c-0.1-0.07-0.226-0.112-0.378-0.122H3.073L6.61,8.896L6.592,8.908L13.561,3.83z"/>
</g>
</svg>
