<?xml version="1.0" encoding="utf-8"?>
<!-- Generator: Adobe Illustrator 14.0.0, SVG Export Plug-In . SVG Version: 6.00 Build 43363)  -->
<!DOCTYPE svg PUBLIC "-//W3C//DTD SVG 1.1//EN" "http://www.w3.org/Graphics/SVG/1.1/DTD/svg11.dtd">
<svg version="1.1" id="Layer_1" xmlns="http://www.w3.org/2000/svg" xmlns:xlink="http://www.w3.org/1999/xlink" x="0px" y="0px"
	 width="28.35px" height="28.35px" viewBox="0 0 28.35 28.35" enable-background="new 0 0 28.35 28.35" xml:space="preserve">
<g>
	<path fill="#C4C7C5" d="M1.32,28.351h25.704c0.729,0,1.323-0.576,1.323-1.284V20.8c0-0.706-0.595-1.282-1.323-1.282
		c-0.731,0-1.323,0.576-1.323,1.282v4.984H2.643V20.8c0-0.706-0.592-1.282-1.323-1.282S0,20.094,0,20.8v6.267
		C0,27.774,0.589,28.351,1.32,28.351z"/>
	<path fill="#C4C7C5" d="M13.236,19.931c0.501,0.485,1.371,0.485,1.872,0l7.359-7.14c0.253-0.244,0.391-0.565,0.391-0.908
		c0-0.342-0.138-0.666-0.389-0.908c-0.501-0.485-1.374-0.482-1.87,0l-5.102,4.949V1.283c0-0.706-0.594-1.281-1.324-1.281
		c-0.729,0-1.323,0.575-1.323,1.281v14.641l-5.103-4.949C7.499,10.732,7.165,10.6,6.81,10.6c-0.354,0-0.687,0.132-0.936,0.375
		c-0.516,0.501-0.516,1.315,0.001,1.818L13.236,19.931z"/>
</g>
</svg>
