<?xml version="1.0" encoding="utf-8"?>
<!-- Generator: Adobe Illustrator 14.0.0, SVG Export Plug-In . SVG Version: 6.00 Build 43363)  -->
<!DOCTYPE svg PUBLIC "-//W3C//DTD SVG 1.1//EN" "http://www.w3.org/Graphics/SVG/1.1/DTD/svg11.dtd">
<svg version="1.1" id="Layer_1" xmlns="http://www.w3.org/2000/svg" xmlns:xlink="http://www.w3.org/1999/xlink" x="0px" y="0px"
	 width="28.35px" height="28.35px" viewBox="0 0 28.35 28.35" enable-background="new 0 0 28.35 28.35" xml:space="preserve">
<g>
	<path fill="#C4C7C5" d="M28.054,11.465c-0.122-0.314-0.305-0.603-0.531-0.843l-0.003-4.61c-0.214-2.102-1.896-3.687-3.913-3.687
		H3.728C1.672,2.325,0,3.996,0,6.051v16.25c0,2.055,1.672,3.728,3.728,3.728h19.878c2.017,0,3.699-1.586,3.916-3.728v-4.569
		c0.228-0.242,0.41-0.531,0.531-0.844c0.293-0.753,0.293-1.632,0.293-2.573v-0.287C28.347,13.097,28.347,12.218,28.054,11.465z
		 M2.425,6.051c0-0.717,0.584-1.301,1.303-1.301h19.878c0.718,0,1.301,0.583,1.301,1.301v3.764h-7.404
		c-2.405,0-4.363,1.956-4.363,4.361c0,2.404,1.958,4.361,4.363,4.361h7.404v3.764c0,0.718-0.583,1.302-1.301,1.302H3.728
		c-0.718,0-1.303-0.584-1.303-1.302V6.051z M15.567,14.176c0-1.067,0.868-1.935,1.936-1.935h7.94c0.262,0,0.327,0.045,0.35,0.104
		c0.13,0.334,0.128,1.055,0.126,1.692v0.281c0.002,0.636,0.004,1.357-0.147,1.748c-0.001,0.001-0.066,0.047-0.328,0.047h-7.94
		C16.436,16.112,15.567,15.243,15.567,14.176z"/>
	<circle fill="#C4C7C5" cx="17.713" cy="14.176" r="1.241"/>
</g>
</svg>
