<?xml version="1.0" encoding="utf-8"?>
<!-- Generator: Adobe Illustrator 14.0.0, SVG Export Plug-In . SVG Version: 6.00 Build 43363)  -->
<!DOCTYPE svg PUBLIC "-//W3C//DTD SVG 1.1//EN" "http://www.w3.org/Graphics/SVG/1.1/DTD/svg11.dtd">
<svg version="1.1" id="Layer_1" xmlns="http://www.w3.org/2000/svg" xmlns:xlink="http://www.w3.org/1999/xlink" x="0px" y="0px"
	 width="28.35px" height="28.35px" viewBox="0 0 28.35 28.35" enable-background="new 0 0 28.35 28.35" xml:space="preserve">
<path fill="#C4C7C5" d="M28.347,4.359c0-1.933-1.572-3.505-3.506-3.505H3.506C1.573,0.854,0,2.426,0,4.359v15.797
	c0,1.934,1.573,3.506,3.506,3.506h21.335c1.934,0,3.506-1.572,3.506-3.506V4.359z M25.715,20.156c0,0.483-0.392,0.875-0.874,0.875
	H3.506c-0.483,0-0.876-0.392-0.876-0.875V8.894l8.984,5.981c0.758,0.503,1.645,0.788,2.563,0.82c0.909-0.032,1.795-0.316,2.556-0.82
	l8.981-5.981V20.156z M25.715,5.735l-10.439,6.946c-0.317,0.212-0.695,0.343-1.092,0.376c-0.423-0.034-0.792-0.161-1.114-0.376
	L2.63,5.735V4.359c0-0.482,0.393-0.875,0.876-0.875h21.335c0.482,0,0.874,0.393,0.874,0.875V5.735z"/>
</svg>
