<?xml version="1.0" encoding="utf-8"?>
<!-- Generator: Adobe Illustrator 14.0.0, SVG Export Plug-In . SVG Version: 6.00 Build 43363)  -->
<!DOCTYPE svg PUBLIC "-//W3C//DTD SVG 1.1//EN" "http://www.w3.org/Graphics/SVG/1.1/DTD/svg11.dtd">
<svg version="1.1" id="Layer_1" xmlns="http://www.w3.org/2000/svg" xmlns:xlink="http://www.w3.org/1999/xlink" x="0px" y="0px"
	 width="100.35px" height="28.35px" viewBox="0 0 100.35 28.35" enable-background="new 0 0 100.35 28.35" xml:space="preserve">
<path fill="#B44EA7" d="M86.176,0.004H14.171C6.345,0.004,0,6.348,0,14.176c0,7.83,6.344,14.174,14.17,14.174h72.005
	c7.826,0,14.171-6.344,14.171-14.174C100.347,6.348,94.002,0.004,86.176,0.004z"/>
<path fill="#FFFFFF" d="M85.953,2.555H72.302v23.244h13.651c6.417,0,11.619-5.202,11.619-11.623
	C97.572,7.757,92.37,2.555,85.953,2.555z"/>
<g>
	<path fill="#FFFFFF" d="M12.079,19.933V8.422h2.175v5.309l4.379-5.309h2.654l-4.811,5.676l5.115,5.835h-2.749l-4.588-5.243v5.243
		H12.079z"/>
	<path fill="#FFFFFF" d="M30.559,19.933h2.238L29.281,8.422h-3.246l-3.516,11.511h2.237l0.729-2.398h4.334L30.559,19.933z
		 M26.103,15.503l1.532-5.042l1.558,5.042H26.103z"/>
	<path fill="#FFFFFF" d="M34.395,19.933V8.422h4.859c0.112,0,0.263,0.004,0.453,0.012c0.188,0.01,0.357,0.027,0.507,0.053
		c0.687,0.105,1.25,0.334,1.691,0.68c0.439,0.346,0.763,0.781,0.971,1.307c0.207,0.525,0.309,1.111,0.309,1.754
		c0,0.645-0.104,1.23-0.314,1.756c-0.21,0.523-0.537,0.959-0.976,1.306c-0.438,0.348-1,0.574-1.681,0.68
		c-0.15,0.023-0.319,0.039-0.511,0.047c-0.193,0.014-0.343,0.018-0.449,0.018h-2.685v3.9H34.395z M36.568,14.002h2.589
		c0.111,0,0.234-0.006,0.367-0.016c0.135-0.01,0.256-0.031,0.37-0.064c0.292-0.08,0.518-0.215,0.678-0.404s0.27-0.4,0.332-0.631
		c0.059-0.232,0.091-0.451,0.091-0.66c0-0.207-0.032-0.426-0.091-0.658c-0.063-0.232-0.172-0.443-0.332-0.631
		c-0.16-0.191-0.387-0.324-0.678-0.406c-0.114-0.031-0.235-0.051-0.37-0.063c-0.133-0.012-0.256-0.018-0.367-0.018h-2.589V14.002z"
		/>
	<path fill="#FFFFFF" d="M51.626,19.933h2.238L50.347,8.422h-3.245l-3.517,11.511h2.237l0.729-2.398h4.334L51.626,19.933z
		 M47.168,15.503l1.534-5.042l1.557,5.042H47.168z"/>
	<path fill="#FFFFFF" d="M57.524,19.933v-9.481h-3.627V8.422h9.431v2.029h-3.629v9.481H57.524z"/>
</g>
<path fill="#B44EA7" d="M79.774,20.365l4.162-4.393l4.16,4.393c0.236,0.25,0.521,0.383,0.817,0.383c0.482,0,0.968-0.346,1.18-0.84
	c0.197-0.457,0.107-0.936-0.248-1.309l-4.197-4.436l4.184-4.422c0.37-0.391,0.461-0.867,0.264-1.322
	c-0.344-0.805-1.368-1.117-1.997-0.459l-4.162,4.396l-4.162-4.396c-0.621-0.658-1.653-0.342-1.997,0.459
	c-0.197,0.455-0.107,0.932,0.25,1.307l4.196,4.438L78.027,18.6c-0.355,0.373-0.443,0.852-0.25,1.309
	C78.125,20.713,79.153,21.027,79.774,20.365z"/>
</svg>
