<?xml version="1.0" encoding="utf-8"?>
<!-- Generator: Adobe Illustrator 14.0.0, SVG Export Plug-In . SVG Version: 6.00 Build 43363)  -->
<!DOCTYPE svg PUBLIC "-//W3C//DTD SVG 1.1//EN" "http://www.w3.org/Graphics/SVG/1.1/DTD/svg11.dtd">
<svg version="1.1" id="Layer_1" xmlns="http://www.w3.org/2000/svg" xmlns:xlink="http://www.w3.org/1999/xlink" x="0px" y="0px"
	 width="28.35px" height="28.35px" viewBox="0 0 28.35 28.35" enable-background="new 0 0 28.35 28.35" xml:space="preserve">
<path fill="#C5C8C6" d="M24.841,0.02c0,0-2.951-0.017-4.203-0.017c-1.733,0-1.733,2.687,0,2.687c1.252,0,4.203-0.04,4.203-0.04
	c0.48,0,0.873,0.392,0.873,0.875h-0.002v10.748c-0.727,0-1.453,0-2.179,0c-1.733,0-1.733,2.686,0,2.686c0.726,0,1.452,0,2.179,0
	v7.888h0.002c0,0.482-0.393,0.873-0.873,0.873h-9.324c0-3.552,0-5.057,0-8.761c1.104,0,2.211,0,3.315,0c1.733,0,1.733-2.686,0-2.686
	c-3.106,0-6.212,0-9.319,0c-1.733,0-1.733,2.686,0,2.686c1.105,0,2.21,0,3.316,0c0,3.704,0,5.209,0,8.761H3.505
	c-0.482,0-0.876-0.391-0.876-0.873v-7.888c0.812,0,1.624,0,2.435,0c1.732,0,1.732-2.686,0-2.686c-0.811,0-1.623,0-2.435,0V3.524
	c0-0.483,0.394-0.875,0.876-0.875h4.422c2.67,2.465,5.339,4.93,8.008,7.395c1.182,1.091,2.954-0.671,1.768-1.767
	c-2.856-2.637-5.711-5.274-8.568-7.912C8.859,0.11,8.548,0.022,8.251,0.035V0.02H3.505C1.575,0.02,0,1.59,0,3.524v21.321
	c0,1.935,1.574,3.504,3.505,3.504h21.335c1.933,0,3.505-1.569,3.505-3.504V3.524C28.346,1.59,26.771,0.02,24.841,0.02z"/>
</svg>
