<?xml version="1.0" encoding="utf-8"?>
<!-- Generator: Adobe Illustrator 14.0.0, SVG Export Plug-In . SVG Version: 6.00 Build 43363)  -->
<!DOCTYPE svg PUBLIC "-//W3C//DTD SVG 1.1//EN" "http://www.w3.org/Graphics/SVG/1.1/DTD/svg11.dtd">
<svg version="1.1" id="Layer_1" xmlns="http://www.w3.org/2000/svg" xmlns:xlink="http://www.w3.org/1999/xlink" x="0px" y="0px"
	 width="56.69px" height="56.69px" viewBox="0 0 56.69 56.69" enable-background="new 0 0 56.69 56.69" xml:space="preserve">
<linearGradient id="SVGID_1_" gradientUnits="userSpaceOnUse" x1="25.0093" y1="34.8413" x2="31.6851" y2="34.8413">
	<stop  offset="0" style="stop-color:#58595C;stop-opacity:0.9"/>
	<stop  offset="1" style="stop-color:#58595C;stop-opacity:0.9"/>
</linearGradient>
<path fill="url(#SVGID_1_)" d="M28.347,28.414c-1.84,0-3.337,1.498-3.337,3.337c0,1.294,0.759,2.483,1.935,3.028l0.031,5.119
	c0,0.755,0.615,1.369,1.372,1.369s1.372-0.614,1.372-1.369v-5.104l0.032-0.015c1.175-0.547,1.935-1.735,1.935-3.028
	C31.685,29.912,30.187,28.414,28.347,28.414z"/>
<linearGradient id="SVGID_2_" gradientUnits="userSpaceOnUse" x1="10.0464" y1="28.4058" x2="46.647" y2="28.4058">
	<stop  offset="0" style="stop-color:#58595C;stop-opacity:0.9"/>
	<stop  offset="1" style="stop-color:#58595C;stop-opacity:0.9"/>
</linearGradient>
<path fill="url(#SVGID_2_)" d="M40.56,21.186H22.341v-3.621c0-3.312,2.694-6.006,6.006-6.006c2.595,0,4.934,1.719,5.72,4.191h0.152
	l2.832-1.303c-0.455-1.282-1.188-2.447-2.165-3.423c-1.747-1.747-4.07-2.709-6.54-2.709c-2.471,0-4.793,0.962-6.54,2.709
	c-1.747,1.747-2.709,4.07-2.709,6.541v3.621h-2.964c-3.356,0-6.087,2.73-6.087,6.087V42.41c0,3.356,2.73,6.087,6.087,6.087H40.56
	c3.356,0,6.087-2.73,6.087-6.087V27.273C46.647,23.917,43.917,21.186,40.56,21.186z M43.152,42.41c0,1.43-1.163,2.593-2.592,2.593
	H16.133c-1.431,0-2.594-1.163-2.594-2.593V27.273c0-1.429,1.164-2.592,2.594-2.592H40.56c1.429,0,2.592,1.163,2.592,2.592V42.41z"/>
</svg>
