<?xml version="1.0" encoding="utf-8"?>
<!-- Generator: Adobe Illustrator 14.0.0, SVG Export Plug-In . SVG Version: 6.00 Build 43363)  -->
<!DOCTYPE svg PUBLIC "-//W3C//DTD SVG 1.1//EN" "http://www.w3.org/Graphics/SVG/1.1/DTD/svg11.dtd">
<svg version="1.1" id="Layer_1" xmlns="http://www.w3.org/2000/svg" xmlns:xlink="http://www.w3.org/1999/xlink" x="0px" y="0px"
	 width="28.35px" height="25.51px" viewBox="0 0 28.35 25.51" enable-background="new 0 0 28.35 25.51" xml:space="preserve">
<g>
	<path fill="#525355" d="M13.646,0.51h14.701v24.944H13.646c-6.91,0-12.513-5.584-12.513-12.473C1.133,6.092,6.735,0.51,13.646,0.51
		L13.646,0.51z"/>
	<path fill="#D1D1D1" d="M10.468,8.213c-0.099,0.07-0.153,0.155-0.169,0.257l-0.001,12.279c0,0.041,0.017,0.073,0.05,0.099
		c0.033,0.029,0.07,0.041,0.115,0.041l1.922,0.001c0.093,0,0.167-0.006,0.219-0.017c0.063-0.016,0.124-0.046,0.178-0.086l7.745-5.72
		c0.012-0.01,0.021-0.021,0.03-0.038c0.009-0.018,0.011-0.035,0.011-0.054c0-0.043-0.013-0.072-0.041-0.094l-3.797-2.743l4.09-2.995
		c0.082-0.09,0.082-0.179,0-0.268l-4.521-3.32c-0.484-0.33-0.711-0.482-1.094-0.482c-0.264,0.003-0.423,0-0.792,0.228
		C14.303,5.357,10.468,8.213,10.468,8.213L10.468,8.213z M12.6,12.69V9.095l2.571-1.875l2.451,1.79L12.6,12.69L12.6,12.69z
		 M12.6,15.166l2.441-1.792l2.282,1.654L12.6,18.473V15.166L12.6,15.166L12.6,15.166z"/>
</g>
</svg>
