<?xml version="1.0" encoding="utf-8"?>
<!-- Generator: Adobe Illustrator 14.0.0, SVG Export Plug-In . SVG Version: 6.00 Build 43363)  -->
<!DOCTYPE svg PUBLIC "-//W3C//DTD SVG 1.1//EN" "http://www.w3.org/Graphics/SVG/1.1/DTD/svg11.dtd">
<svg version="1.1" id="Layer_1" xmlns="http://www.w3.org/2000/svg" xmlns:xlink="http://www.w3.org/1999/xlink" x="0px" y="0px"
	 width="56.69px" height="56.69px" viewBox="0 0 56.69 56.69" enable-background="new 0 0 56.69 56.69" xml:space="preserve">
<g>
	<path fill="#4D5962" d="M37.471,21.781l-7.428-5.837l8.001-6.372c0.05-0.063,0.046-0.093-0.016-0.163l-8.521-6.792
		c-0.893-0.66-1.261-0.931-1.89-0.931c-0.499,0.008-0.731,0.012-1.346,0.42c-0.236,0.159-4.58,3.666-7.443,5.984
		c-0.132,0.101-0.195,0.205-0.214,0.344v25.235l3.665,0.003c0.152,0,0.268-0.011,0.342-0.029c0.079-0.02,0.154-0.06,0.229-0.122
		L37.471,21.781L37.471,21.781z M22.394,9.542l5.16-4.09l5.1,4.05l-10.26,8.175L22.394,9.542L22.394,9.542L22.394,9.542z
		 M22.394,29.577v-7.534l4.91-3.92l4.79,3.767L22.394,29.577L22.394,29.577z"/>
	<g>
		<path fill="#4D5962" d="M7.269,45.814c-0.354-0.379-0.785-0.675-1.281-0.879c-0.494-0.206-1.053-0.311-1.661-0.311
			c-1.279,0-2.307,0.38-3.055,1.129c-0.75,0.748-1.129,1.848-1.129,3.266v1.606c0,1.354,0.379,2.434,1.127,3.207
			c0.749,0.776,1.777,1.17,3.057,1.17c0.922,0,1.728-0.219,2.396-0.648c0.674-0.433,1.144-1.07,1.395-1.895l0.037-0.122L6.218,51.81
			l-0.037,0.11c-0.134,0.4-0.362,0.715-0.679,0.934c-0.317,0.223-0.713,0.336-1.176,0.336c-0.679,0-1.21-0.217-1.579-0.645
			c-0.371-0.43-0.559-1.043-0.559-1.822v-0.167h6.167V49.02c0-0.67-0.094-1.281-0.277-1.815C7.892,46.661,7.62,46.193,7.269,45.814z
			 M4.326,46.439c0.639,0,1.113,0.2,1.451,0.611c0.341,0.416,0.52,1.021,0.532,1.795v0.089H2.188v-0.012
			c0-0.789,0.188-1.408,0.559-1.841C3.119,46.649,3.635,46.439,4.326,46.439z"/>
		<rect x="10.375" y="48.164" fill="#4D5962" width="5.854" height="1.947"/>
		<path fill="#4D5962" d="M22.375,40.99h-3.759v13.78h2.143V49.84h1.617c1.428,0,2.55-0.343,3.338-1.017
			c0.791-0.679,1.193-1.692,1.193-3.01V45c0-1.32-0.392-2.331-1.164-3.004C24.972,41.329,23.839,40.99,22.375,40.99z M22.665,47.854
			h-1.907v-4.875h1.907c1.412,0,2.099,0.674,2.099,2.061v0.734c0,0.695-0.182,1.222-0.541,1.563
			C23.861,47.681,23.337,47.854,22.665,47.854z"/>
		<path fill="#4D5962" d="M32.073,44.625c-1.03,0-1.872,0.238-2.502,0.712c-0.632,0.473-1.055,1.098-1.254,1.855l-0.031,0.12
			l1.92,0.508l0.034-0.116c0.109-0.378,0.312-0.669,0.618-0.892c0.311-0.225,0.695-0.334,1.178-0.334
			c1.14,0,1.693,0.515,1.693,1.573v0.689h-1.519c-1.35,0-2.386,0.265-3.081,0.789c-0.709,0.531-1.068,1.291-1.068,2.256v0.309
			c0,0.898,0.277,1.614,0.822,2.13c0.543,0.517,1.336,0.778,2.359,0.778c1.151,0,2.034-0.438,2.63-1.301l0.332,1.068h1.569v-6.676
			c0-1.169-0.327-2.048-0.97-2.616C34.168,44.912,33.249,44.625,32.073,44.625z M32.469,53.049c-0.245,0.081-0.515,0.122-0.8,0.122
			c-0.512,0-0.904-0.114-1.17-0.339c-0.262-0.221-0.39-0.512-0.39-0.891v-0.253c0-0.4,0.146-0.714,0.446-0.958
			c0.307-0.244,0.851-0.368,1.614-0.368h1.56v0.588c-0.015,0.415-0.076,0.766-0.185,1.041c-0.109,0.281-0.256,0.509-0.436,0.681
			C32.932,52.844,32.716,52.971,32.469,53.049z"/>
		<path fill="#4D5962" d="M42.625,44.625c-0.611,0-1.166,0.128-1.651,0.382c-0.414,0.216-0.764,0.51-1.044,0.875l-0.305-1.024
			h-1.588v9.913h2.045v-6.229c0.026-0.584,0.239-1.079,0.631-1.472c0.396-0.398,0.89-0.592,1.509-0.592
			c0.553,0,0.996,0.166,1.353,0.508c0.354,0.333,0.533,0.875,0.533,1.611v6.173h2.045v-6.447c0-1.123-0.313-2.029-0.932-2.692
			C44.602,44.963,43.729,44.625,42.625,44.625z"/>
		<path fill="#4D5962" d="M56.264,47.164c-0.189-0.528-0.471-0.988-0.837-1.37c-0.369-0.379-0.817-0.672-1.333-0.869
			c-1.024-0.395-2.435-0.401-3.472-0.001c-0.517,0.198-0.964,0.491-1.328,0.87c-0.369,0.381-0.656,0.841-0.851,1.368
			c-0.199,0.529-0.3,1.129-0.3,1.78v1.741c0,0.654,0.101,1.255,0.3,1.784c0.197,0.528,0.484,0.987,0.851,1.365
			c0.361,0.378,0.809,0.672,1.328,0.872c0.51,0.198,1.091,0.298,1.725,0.298c0.646,0,1.233-0.1,1.747-0.298
			c0.519-0.2,0.967-0.494,1.333-0.872c0.364-0.379,0.646-0.838,0.837-1.367c0.191-0.53,0.288-1.13,0.288-1.782v-1.741
			C56.552,48.292,56.455,47.694,56.264,47.164z M54.504,48.942v1.741c0,0.781-0.188,1.395-0.557,1.823
			c-0.37,0.433-0.893,0.644-1.601,0.644c-0.706,0-1.228-0.21-1.595-0.645c-0.372-0.429-0.56-1.042-0.56-1.822v-1.741
			c0-0.778,0.188-1.392,0.56-1.822c0.368-0.432,0.891-0.642,1.595-0.642c0.697,0,1.234,0.216,1.601,0.643
			C54.322,47.556,54.504,48.151,54.504,48.942z"/>
	</g>
</g>
</svg>
