<?xml version="1.0" encoding="utf-8"?>
<!-- Generator: Adobe Illustrator 14.0.0, SVG Export Plug-In . SVG Version: 6.00 Build 43363)  -->
<!DOCTYPE svg PUBLIC "-//W3C//DTD SVG 1.1//EN" "http://www.w3.org/Graphics/SVG/1.1/DTD/svg11.dtd">
<svg version="1.1" id="Layer_1" xmlns="http://www.w3.org/2000/svg" xmlns:xlink="http://www.w3.org/1999/xlink" x="0px" y="0px"
	 width="34.02px" height="31.18px" viewBox="0 0 34.02 31.18" enable-background="new 0 0 34.02 31.18" xml:space="preserve">
<path fill="#525355" d="M18.376,0H0v31.18h18.376c8.638,0,15.641-6.979,15.641-15.591C34.017,6.978,27.014,0,18.376,0z"/>
<g>
	<path fill="#D1D1D1" d="M9.956,9.629C9.833,9.716,9.764,9.823,9.745,9.95L9.743,25.299c0,0.051,0.021,0.092,0.063,0.123
		c0.041,0.037,0.087,0.051,0.144,0.051l2.402,0.002c0.116,0,0.209-0.008,0.274-0.021c0.077-0.02,0.154-0.057,0.222-0.107l9.681-7.15
		c0.015-0.012,0.026-0.027,0.038-0.047c0.011-0.023,0.013-0.045,0.013-0.068c0-0.053-0.015-0.09-0.051-0.117l-4.745-3.429
		l5.112-3.744c0.102-0.112,0.102-0.223,0-0.335l-5.651-4.15c-0.605-0.412-0.888-0.603-1.367-0.603c-0.33,0.004-0.529,0-0.99,0.284
		C14.75,6.059,9.956,9.629,9.956,9.629z M12.62,15.226v-4.494l3.215-2.344l3.064,2.237L12.62,15.226z M12.62,18.32l3.052-2.239
		l2.853,2.067l-5.904,4.305V18.32z"/>
</g>
</svg>
