<?xml version="1.0" encoding="utf-8"?>
<!-- Generator: Adobe Illustrator 14.0.0, SVG Export Plug-In . SVG Version: 6.00 Build 43363)  -->
<!DOCTYPE svg PUBLIC "-//W3C//DTD SVG 1.1//EN" "http://www.w3.org/Graphics/SVG/1.1/DTD/svg11.dtd">
<svg version="1.1" id="Layer_1" xmlns="http://www.w3.org/2000/svg" xmlns:xlink="http://www.w3.org/1999/xlink" x="0px" y="0px"
	 width="56.69px" height="56.69px" viewBox="0 0 56.69 56.69" enable-background="new 0 0 56.69 56.69" xml:space="preserve">
<path fill="#C4C7C5" d="M54.104,26.848c0-4.788-3.896-8.683-8.684-8.683H11.273c-4.788,0-8.683,3.895-8.683,8.683v21.16
	c0,4.788,3.895,8.683,8.683,8.683H45.42c4.788,0,8.684-3.895,8.684-8.683V26.848z M48.869,48.008c0,1.901-1.548,3.449-3.449,3.449
	H11.273c-1.902,0-3.45-1.548-3.45-3.449v-21.16c0-1.902,1.548-3.449,3.45-3.449H45.42c1.901,0,3.449,1.547,3.449,3.449V48.008z"/>
<path fill="#C4C7C5" d="M28.347,5.23c4.437,0,8.046,3.61,8.046,8.046v8.907h5.233v-8.907c0-3.547-1.382-6.882-3.89-9.39
	c-2.508-2.508-5.842-3.889-9.39-3.889c-3.547,0-6.882,1.381-9.39,3.889c-2.508,2.508-3.889,5.843-3.889,9.39v8.907h5.233v-8.907
	C20.301,8.84,23.91,5.23,28.347,5.23z"/>
<path fill="#C4C7C5" d="M30.09,37.251l0.146-0.067c1.58-0.735,2.603-2.334,2.603-4.075c0-2.477-2.016-4.491-4.491-4.491
	c-2.477,0-4.491,2.015-4.491,4.491c0,1.741,1.021,3.34,2.602,4.075l0.146,0.067v7.245c0,0.961,0.782,1.742,1.743,1.742
	s1.743-0.781,1.743-1.742V37.251z"/>
</svg>
