<?xml version="1.0" encoding="utf-8"?>
<!-- Generator: Adobe Illustrator 14.0.0, SVG Export Plug-In . SVG Version: 6.00 Build 43363)  -->
<!DOCTYPE svg PUBLIC "-//W3C//DTD SVG 1.1//EN" "http://www.w3.org/Graphics/SVG/1.1/DTD/svg11.dtd">
<svg version="1.1" id="Layer_1" xmlns="http://www.w3.org/2000/svg" xmlns:xlink="http://www.w3.org/1999/xlink" x="0px" y="0px"
	 width="28.35px" height="28.35px" viewBox="0 0 28.35 28.35" enable-background="new 0 0 28.35 28.35" xml:space="preserve">
<path fill="#C4C7C5" d="M24.841,0.003H3.506C1.574,0.003,0,1.574,0,3.509v21.335c0,1.935,1.574,3.506,3.506,3.506h21.335
	c1.934,0,3.506-1.571,3.506-3.506V3.509C28.347,1.574,26.774,0.003,24.841,0.003z M24.841,25.719H3.506
	c-0.483,0-0.876-0.392-0.876-0.875V3.509c0-0.483,0.393-0.875,0.876-0.875h21.335c0.482,0,0.874,0.392,0.874,0.875h-0.001v21.335
	h0.001C25.715,25.327,25.323,25.719,24.841,25.719z"/>
<polygon fill="#C4C7C5" points="20.897,8.807 20.897,6.176 6.949,6.176 6.949,22.177 20.897,22.177 20.897,19.547 9.579,19.547 
	9.579,15.491 19.481,15.491 19.481,12.861 9.579,12.861 9.579,8.807 "/>
</svg>
