<?xml version="1.0" encoding="utf-8"?>
<!-- Generator: Adobe Illustrator 14.0.0, SVG Export Plug-In . SVG Version: 6.00 Build 43363)  -->
<!DOCTYPE svg PUBLIC "-//W3C//DTD SVG 1.1//EN" "http://www.w3.org/Graphics/SVG/1.1/DTD/svg11.dtd">
<svg version="1.1" id="Layer_1" xmlns="http://www.w3.org/2000/svg" xmlns:xlink="http://www.w3.org/1999/xlink" x="0px" y="0px"
	 width="70.87px" height="70.87px" viewBox="0 0 70.87 70.87" enable-background="new 0 0 70.87 70.87" xml:space="preserve">
<g>
	<linearGradient id="SVGID_1_" gradientUnits="userSpaceOnUse" x1="16.6777" y1="35.438" x2="54.1875" y2="35.438">
		<stop  offset="0" style="stop-color:#FEFEF8;stop-opacity:0.9"/>
		<stop  offset="1" style="stop-color:#FEFEF8;stop-opacity:0.9"/>
	</linearGradient>
	<path fill="url(#SVGID_1_)" d="M54.186,35.483c0.004-0.144,0-0.248-0.007-0.302c-0.361-10.179-8.594-18.299-18.741-18.494
		l-0.348-0.004c-9.954,0-18.212,8.41-18.409,18.748c-0.192,9.966,8.393,18.555,18.747,18.755l0.349,0.006
		c9.778-0.001,18.03-8.244,18.391-18.375C54.183,35.671,54.189,35.563,54.186,35.483z M35.427,49.043l-0.244,0.002
		c-7.219,0-13.211-6.107-13.358-13.614c-0.068-3.583,1.354-6.979,4.005-9.563c2.56-2.495,6.062-3.965,9.607-4.035l0.25-0.002
		c7.216,0,13.206,6.09,13.352,13.577C48.896,42.909,42.917,48.896,35.427,49.043z"/>
	<linearGradient id="SVGID_2_" gradientUnits="userSpaceOnUse" x1="33.0063" y1="6.5137" x2="37.8594" y2="6.5137">
		<stop  offset="0" style="stop-color:#FEFEF8;stop-opacity:0.9"/>
		<stop  offset="1" style="stop-color:#FEFEF8;stop-opacity:0.9"/>
	</linearGradient>
	<path fill="url(#SVGID_2_)" d="M37.859,10.676c0-4.368,0-3.957,0-8.324c0-3.13-4.853-3.13-4.853,0c0,4.367,0,3.957,0,8.324
		C33.006,13.805,37.859,13.805,37.859,10.676L37.859,10.676z"/>
	<linearGradient id="SVGID_3_" gradientUnits="userSpaceOnUse" x1="33.0063" y1="64.3613" x2="37.8594" y2="64.3613">
		<stop  offset="0" style="stop-color:#FEFEF8;stop-opacity:0.9"/>
		<stop  offset="1" style="stop-color:#FEFEF8;stop-opacity:0.9"/>
	</linearGradient>
	<path fill="url(#SVGID_3_)" d="M37.859,68.523c0-4.367,0-3.958,0-8.323c0-3.131-4.853-3.131-4.853,0c0,4.365,0,3.956,0,8.323
		C33.006,71.652,37.859,71.652,37.859,68.523L37.859,68.523z"/>
	<linearGradient id="SVGID_4_" gradientUnits="userSpaceOnUse" x1="0" y1="35.4375" x2="13.0176" y2="35.4375">
		<stop  offset="0" style="stop-color:#FEFEF8;stop-opacity:0.9"/>
		<stop  offset="1" style="stop-color:#FEFEF8;stop-opacity:0.9"/>
	</linearGradient>
	<path fill="url(#SVGID_4_)" d="M10.672,33.011c-4.369,0-3.959,0-8.325,0c-3.129,0-3.129,4.853,0,4.853c4.366,0,3.957,0,8.325,0
		C13.799,37.864,13.799,33.011,10.672,33.011L10.672,33.011z"/>
	<linearGradient id="SVGID_5_" gradientUnits="userSpaceOnUse" x1="57.8477" y1="35.4375" x2="70.8662" y2="35.4375">
		<stop  offset="0" style="stop-color:#FEFEF8;stop-opacity:0.9"/>
		<stop  offset="1" style="stop-color:#FEFEF8;stop-opacity:0.9"/>
	</linearGradient>
	<path fill="url(#SVGID_5_)" d="M68.52,33.011c-4.368,0-3.957,0-8.324,0c-3.13,0-3.13,4.853,0,4.853c4.367,0,3.956,0,8.324,0
		C71.648,37.864,71.648,33.011,68.52,33.011L68.52,33.011z"/>
	<linearGradient id="SVGID_6_" gradientUnits="userSpaceOnUse" x1="9.6064" y1="14.9858" x2="20.3535" y2="14.9858">
		<stop  offset="0" style="stop-color:#FEFEF8;stop-opacity:0.9"/>
		<stop  offset="1" style="stop-color:#FEFEF8;stop-opacity:0.9"/>
	</linearGradient>
	<path fill="url(#SVGID_6_)" d="M19.639,16.213c-3.088-3.089-2.798-2.798-5.886-5.886c-2.213-2.213-5.645,1.218-3.432,3.432
		c3.088,3.087,2.798,2.797,5.887,5.886C18.42,21.857,21.852,18.426,19.639,16.213L19.639,16.213z"/>
	<linearGradient id="SVGID_7_" gradientUnits="userSpaceOnUse" x1="50.5127" y1="55.8906" x2="61.2588" y2="55.8906">
		<stop  offset="0" style="stop-color:#FEFEF8;stop-opacity:0.9"/>
		<stop  offset="1" style="stop-color:#FEFEF8;stop-opacity:0.9"/>
	</linearGradient>
	<path fill="url(#SVGID_7_)" d="M60.544,57.117c-3.088-3.088-2.799-2.799-5.885-5.886c-2.214-2.213-5.646,1.219-3.432,3.433
		c3.087,3.086,2.798,2.797,5.886,5.885C59.326,62.762,62.757,59.33,60.544,57.117L60.544,57.117z"/>
	<linearGradient id="SVGID_8_" gradientUnits="userSpaceOnUse" x1="9.6069" y1="55.8906" x2="20.3545" y2="55.8906">
		<stop  offset="0" style="stop-color:#FEFEF8;stop-opacity:0.9"/>
		<stop  offset="1" style="stop-color:#FEFEF8;stop-opacity:0.9"/>
	</linearGradient>
	<path fill="url(#SVGID_8_)" d="M16.208,51.23c-3.089,3.089-2.799,2.799-5.887,5.887c-2.212,2.213,1.22,5.645,3.433,3.432
		c3.087-3.088,2.797-2.798,5.887-5.886C21.852,52.451,18.42,49.019,16.208,51.23L16.208,51.23z"/>
	<linearGradient id="SVGID_9_" gradientUnits="userSpaceOnUse" x1="50.5117" y1="14.9863" x2="61.2598" y2="14.9863">
		<stop  offset="0" style="stop-color:#FEFEF8;stop-opacity:0.9"/>
		<stop  offset="1" style="stop-color:#FEFEF8;stop-opacity:0.9"/>
	</linearGradient>
	<path fill="url(#SVGID_9_)" d="M57.113,10.327c-3.089,3.088-2.799,2.797-5.887,5.886c-2.213,2.213,1.22,5.646,3.433,3.433
		c3.087-3.089,2.797-2.799,5.886-5.887C62.758,11.545,59.326,8.114,57.113,10.327L57.113,10.327z"/>
</g>
</svg>
