<?xml version="1.0" encoding="utf-8"?>
<!-- Generator: Adobe Illustrator 14.0.0, SVG Export Plug-In . SVG Version: 6.00 Build 43363)  -->
<!DOCTYPE svg PUBLIC "-//W3C//DTD SVG 1.1//EN" "http://www.w3.org/Graphics/SVG/1.1/DTD/svg11.dtd">
<svg version="1.1" id="Layer_1" xmlns="http://www.w3.org/2000/svg" xmlns:xlink="http://www.w3.org/1999/xlink" x="0px" y="0px"
	 width="70.87px" height="70.87px" viewBox="0 0 70.87 70.87" enable-background="new 0 0 70.87 70.87" xml:space="preserve">
<g>
	<linearGradient id="SVGID_1_" gradientUnits="userSpaceOnUse" x1="9.1294" y1="35.437" x2="61.7363" y2="35.437">
		<stop  offset="0" style="stop-color:#58595C;stop-opacity:0.9"/>
		<stop  offset="1" style="stop-color:#58595C;stop-opacity:0.9"/>
	</linearGradient>
	<path fill="url(#SVGID_1_)" d="M58.119,37.453c-7.175,3.693-15.68,2.4-21.446-3.193c-5.611-5.441-6.736-14.056-3.413-20.978
		c0.407-0.445,0.562-1.046,0.505-1.65c-0.03-1.735-2.044-2.994-3.494-2.276c-9.395,1.995-16.854,8.875-19.893,17.962
		c-3.083,9.221-0.268,19.54,6.32,26.479c6.682,7.036,17.05,9.485,26.292,6.956c9.548-2.616,16.831-10.938,18.691-20.56
		C62.092,38.08,60.088,36.439,58.119,37.453z M42.334,55.881c-7.596,2.54-16.016,0.382-21.761-5.071
		c-5.809-5.518-7.795-13.939-5.708-21.568c1.757-6.413,6.559-11.362,12.508-13.882c-2.071,7.87-0.018,16.264,5.869,22.332
		c5.845,6.025,14.505,7.907,22.346,5.854C53.156,49.305,48.475,53.827,42.334,55.881z"/>
</g>
</svg>
