<?xml version="1.0" encoding="utf-8"?>
<!-- Generator: Adobe Illustrator 14.0.0, SVG Export Plug-In . SVG Version: 6.00 Build 43363)  -->
<!DOCTYPE svg PUBLIC "-//W3C//DTD SVG 1.1//EN" "http://www.w3.org/Graphics/SVG/1.1/DTD/svg11.dtd">
<svg version="1.1" id="Layer_1" xmlns="http://www.w3.org/2000/svg" xmlns:xlink="http://www.w3.org/1999/xlink" x="0px" y="0px"
	 width="107.72px" height="90.71px" viewBox="0 0 107.72 90.71" enable-background="new 0 0 107.72 90.71" xml:space="preserve">
<path fill="#6D7377" d="M62.215,0.001H0v90.709h62.215c25.132,0,45.502-20.301,45.502-45.359
	C107.717,20.3,87.347,0.001,62.215,0.001z"/>
<g>
	<path fill="#FCFCFC" d="M62.586,45.393c0.004-0.115,0-0.197-0.006-0.242c-0.289-8.172-6.898-14.689-15.045-14.848L47.256,30.3
		c-7.991,0-14.621,6.752-14.779,15.051c-0.154,8.002,6.738,14.896,15.051,15.058l0.28,0.005c7.851-0.001,14.474-6.618,14.765-14.752
		C62.584,45.545,62.59,45.457,62.586,45.393L62.586,45.393z M47.527,56.279l-0.196,0.002c-5.796,0-10.606-4.903-10.724-10.93
		c-0.055-2.877,1.087-5.604,3.215-7.677c2.055-2.003,4.866-3.185,7.713-3.24l0.201-0.001c5.793,0,10.602,4.889,10.719,10.899
		C58.34,51.354,53.539,56.162,47.527,56.279L47.527,56.279z"/>
	<path fill="#FCFCFC" d="M49.48,25.477c0-3.506,0-3.177,0-6.683c0-2.512-3.896-2.512-3.896,0c0,3.506,0,3.177,0,6.683
		C45.584,27.989,49.48,27.989,49.48,25.477L49.48,25.477L49.48,25.477z"/>
	<path fill="#FCFCFC" d="M49.48,71.918c0-3.506,0-3.178,0-6.683c0-2.514-3.896-2.514-3.896,0c0,3.505,0,3.177,0,6.683
		C45.584,74.431,49.48,74.431,49.48,71.918L49.48,71.918L49.48,71.918z"/>
	<path fill="#FCFCFC" d="M27.653,43.408c-3.508,0-3.179,0-6.684,0c-2.512,0-2.512,3.897,0,3.897c3.506,0,3.177,0,6.684,0
		C30.164,47.306,30.164,43.408,27.653,43.408L27.653,43.408L27.653,43.408z"/>
	<path fill="#FCFCFC" d="M74.094,43.408c-3.506,0-3.178,0-6.684,0c-2.514,0-2.514,3.897,0,3.897c3.506,0,3.178,0,6.684,0
		C76.605,47.306,76.605,43.408,74.094,43.408L74.094,43.408L74.094,43.408z"/>
	<path fill="#FCFCFC" d="M34.853,29.923c-2.479-2.479-2.247-2.247-4.726-4.726c-1.777-1.775-4.532,0.979-2.756,2.755
		c2.479,2.479,2.247,2.247,4.726,4.726C33.874,34.454,36.629,31.699,34.853,29.923L34.853,29.923L34.853,29.923z"/>
	<path fill="#FCFCFC" d="M67.691,62.761c-2.48-2.479-2.248-2.247-4.725-4.725c-1.777-1.776-4.533,0.979-2.756,2.756
		c2.479,2.478,2.248,2.246,4.727,4.725C66.713,67.293,69.469,64.538,67.691,62.761L67.691,62.761L67.691,62.761z"/>
	<path fill="#FCFCFC" d="M32.098,58.035c-2.479,2.48-2.247,2.248-4.726,4.726c-1.776,1.777,0.979,4.532,2.755,2.756
		c2.479-2.479,2.247-2.247,4.727-4.726C36.629,59.016,33.874,56.26,32.098,58.035L32.098,58.035L32.098,58.035z"/>
	<path fill="#FCFCFC" d="M64.938,25.197c-2.48,2.479-2.248,2.246-4.727,4.726c-1.777,1.776,0.979,4.532,2.756,2.756
		c2.479-2.479,2.246-2.246,4.725-4.726C69.469,26.176,66.713,23.42,64.938,25.197L64.938,25.197L64.938,25.197z"/>
</g>
</svg>
