<?xml version="1.0" encoding="utf-8"?>
<!-- Generator: Adobe Illustrator 14.0.0, SVG Export Plug-In . SVG Version: 6.00 Build 43363)  -->
<!DOCTYPE svg PUBLIC "-//W3C//DTD SVG 1.1//EN" "http://www.w3.org/Graphics/SVG/1.1/DTD/svg11.dtd">
<svg version="1.1" id="Layer_1" xmlns="http://www.w3.org/2000/svg" xmlns:xlink="http://www.w3.org/1999/xlink" x="0px" y="0px"
	 width="99.21px" height="90.71px" viewBox="0 0 99.21 90.71" enable-background="new 0 0 99.21 90.71" xml:space="preserve">
<rect y="0.001" fill="#F3F3F2" width="99.213" height="90.708"/>
<g>
	<path fill="#485359" d="M86.086,52.434l-6.711-7.078l6.711-7.076c0.486-0.514,0.613-1.196,0.34-1.825
		c-0.291-0.67-0.961-1.137-1.631-1.137c-0.426,0-0.824,0.184-1.156,0.531L77,42.851l-6.641-7.002
		c-0.33-0.348-0.73-0.531-1.154-0.531c-0.672,0-1.342,0.467-1.633,1.137c-0.273,0.629-0.146,1.312,0.34,1.824l6.711,7.078
		l-6.711,7.077c-0.486,0.514-0.613,1.195-0.34,1.826c0.291,0.668,0.961,1.137,1.633,1.137c0.426,0,0.826-0.186,1.154-0.533
		L77,47.861l6.639,7.002c0.33,0.348,0.73,0.533,1.156,0.533c0.67,0,1.34-0.467,1.631-1.137
		C86.701,53.629,86.572,52.947,86.086,52.434z"/>
	<path fill="#485359" d="M58.744,23.246c-0.963,0-1.877,0.311-2.641,0.896L43.61,33.058h-6.603c-3.065,0-5.558,2.399-5.558,5.35
		v13.899c0,2.949,2.493,5.35,5.558,5.35h6.603l12.501,8.922c0.754,0.578,1.668,0.889,2.633,0.889c2.365,0,4.287-1.871,4.287-4.172
		V27.417C63.031,25.117,61.109,23.246,58.744,23.246z M58.744,26.628c0.428,0,0.889,0.302,0.889,0.789v35.877
		c0,0.488-0.461,0.789-0.889,0.789c-0.205,0-0.4-0.066-0.564-0.191l-12.181-8.678V35.499l12.171-8.671
		C58.342,26.695,58.537,26.628,58.744,26.628z M34.85,38.408c0-1.085,0.968-1.967,2.158-1.967H42.6v17.833h-5.592
		c-1.19,0-2.158-0.883-2.158-1.967V38.408z"/>
</g>
</svg>
