<?xml version="1.0" encoding="utf-8"?>
<!-- Generator: Adobe Illustrator 14.0.0, SVG Export Plug-In . SVG Version: 6.00 Build 43363)  -->
<!DOCTYPE svg PUBLIC "-//W3C//DTD SVG 1.1//EN" "http://www.w3.org/Graphics/SVG/1.1/DTD/svg11.dtd">
<svg version="1.1" id="Layer_1" xmlns="http://www.w3.org/2000/svg" xmlns:xlink="http://www.w3.org/1999/xlink" x="0px" y="0px"
	 width="107.72px" height="90.71px" viewBox="0 0 107.72 90.71" enable-background="new 0 0 107.72 90.71" xml:space="preserve">
<path fill="#F3F3F2" d="M62.215,0.001H0V90.71h62.215c25.132,0,45.502-20.299,45.502-45.358
	C107.717,20.301,87.347,0.001,62.215,0.001z"/>
<path fill="#485359" d="M44.104,24.377c-0.239,0-0.462,0.051-0.666,0.152c-7.501,1.596-13.437,6.957-15.907,14.348
	c-2.376,7.108-0.396,15.403,5.046,21.133c3.815,4.018,9.352,6.324,15.189,6.324c0,0,0,0,0.001,0c1.965,0,3.914-0.262,5.792-0.775
	c7.419-2.033,13.413-8.627,14.917-16.408c0.116-0.605-0.026-1.205-0.393-1.648c-0.539-0.654-1.474-0.836-2.289-0.418
	c-2.148,1.105-4.539,1.691-6.913,1.691c-3.896,0-7.607-1.52-10.448-4.276c-4.386-4.254-5.523-11.24-2.765-16.986
	c0.307-0.342,0.439-0.777,0.394-1.258C46.044,25.176,45.014,24.377,44.104,24.377z M45.856,47.079
	c3.316,3.42,7.888,5.305,12.873,5.305c1.664,0,3.327-0.215,4.943-0.639l0.246-0.064l-0.099,0.234
	c-2.024,4.795-5.829,8.338-10.714,9.973c-1.7,0.568-3.482,0.857-5.297,0.857c-4.498,0-8.98-1.807-12.298-4.957
	c-4.597-4.367-6.366-11.049-4.618-17.44c1.367-4.992,5.053-9.084,10.113-11.227l0.234-0.1l-0.064,0.246
	C39.493,35.665,41.243,42.323,45.856,47.079z"/>
</svg>
