<?xml version="1.0" encoding="utf-8"?>
<!-- Generator: Adobe Illustrator 14.0.0, SVG Export Plug-In . SVG Version: 6.00 Build 43363)  -->
<!DOCTYPE svg PUBLIC "-//W3C//DTD SVG 1.1//EN" "http://www.w3.org/Graphics/SVG/1.1/DTD/svg11.dtd">
<svg version="1.1" id="Layer_1" xmlns="http://www.w3.org/2000/svg" xmlns:xlink="http://www.w3.org/1999/xlink" x="0px" y="0px"
	 width="99.21px" height="90.71px" viewBox="0 0 99.21 90.71" enable-background="new 0 0 99.21 90.71" xml:space="preserve">
<rect y="0.001" fill="#F3F3F2" width="99.213" height="90.708"/>
<g>
	<path fill="#485359" d="M86.566,45.363c0.027-11.323-7.361-17.309-7.676-17.559c-0.313-0.251-0.689-0.384-1.09-0.385
		c-0.516,0-1.004,0.224-1.336,0.612c-0.299,0.35-0.439,0.795-0.395,1.254c0.047,0.456,0.271,0.866,0.629,1.153
		c0.264,0.21,6.422,5.237,6.4,14.915c-0.023,9.637-6.205,14.674-6.469,14.883c-0.408,0.324-0.643,0.805-0.643,1.316
		c-0.002,0.396,0.139,0.781,0.393,1.088c0.324,0.385,0.814,0.605,1.348,0.607l0.059,0.043c0.406-0.066,0.75-0.191,1.021-0.406
		C79.125,62.636,86.539,56.638,86.566,45.363z"/>
	<path fill="#485359" d="M78.002,45.349c0.092-4.993-2.016-9.811-5.779-13.219c-0.283-0.205-0.648-0.321-1.021-0.322
		c-0.496,0-0.967,0.205-1.293,0.563c-0.311,0.339-0.467,0.775-0.439,1.229c0.025,0.46,0.23,0.879,0.578,1.179
		c2.951,2.754,4.586,6.604,4.488,10.566c0.078,3.941-1.568,7.767-4.514,10.494c-0.428,0.34-0.66,0.811-0.658,1.33
		c0,0.396,0.141,0.781,0.395,1.084c0.32,0.379,0.824,0.605,1.346,0.607l0.059,0.043c0.406-0.066,0.754-0.195,1.033-0.414
		C75.951,55.118,78.068,50.329,78.002,45.349z"/>
	<path fill="#485359" d="M69.744,45.414c0.01-3.983-2.746-7.699-6.715-9.083v-8.913c0-2.301-1.922-4.172-4.287-4.172
		c-0.963,0-1.877,0.311-2.641,0.896l-12.493,8.917h-6.603c-3.065,0-5.558,2.399-5.558,5.35v13.898c0,2.949,2.493,5.35,5.558,5.35
		h6.603l12.501,8.924c0.754,0.578,1.668,0.887,2.633,0.887c2.365,0,4.287-1.871,4.287-4.17V54.45
		C66.98,53.075,69.734,49.382,69.744,45.414z M42.598,54.272h-5.592c-1.19,0-2.158-0.883-2.158-1.967V38.408
		c0-1.085,0.968-1.967,2.158-1.967h5.592V54.272z M59.631,63.296c0,0.486-0.461,0.789-0.889,0.789c-0.205,0-0.4-0.066-0.564-0.193
		l-12.181-8.676V35.499l12.171-8.671c0.172-0.133,0.367-0.199,0.574-0.199c0.428,0,0.889,0.302,0.889,0.789V63.296z M63.029,51.069
		V39.741c2.213,1.112,3.604,3.298,3.598,5.666C66.621,47.753,65.244,49.909,63.029,51.069z"/>
</g>
</svg>
