<?xml version="1.0" encoding="utf-8"?>
<!-- Generator: Adobe Illustrator 14.0.0, SVG Export Plug-In . SVG Version: 6.00 Build 43363)  -->
<!DOCTYPE svg PUBLIC "-//W3C//DTD SVG 1.1//EN" "http://www.w3.org/Graphics/SVG/1.1/DTD/svg11.dtd">
<svg version="1.1" id="Layer_1" xmlns="http://www.w3.org/2000/svg" xmlns:xlink="http://www.w3.org/1999/xlink" x="0px" y="0px"
	 width="99.21px" height="90.71px" viewBox="0 0 99.21 90.71" enable-background="new 0 0 99.21 90.71" xml:space="preserve">
<rect y="0.001" fill="#6D7377" width="99.213" height="90.708"/>
<g>
	<path fill="#FCFCFC" d="M86.086,52.434l-6.713-7.078l6.713-7.076c0.486-0.514,0.613-1.196,0.34-1.825
		c-0.291-0.67-0.963-1.137-1.633-1.137c-0.424,0-0.824,0.184-1.154,0.531l-6.641,7.002l-6.639-7.002
		c-0.332-0.348-0.73-0.531-1.156-0.531c-0.67,0-1.342,0.467-1.631,1.137c-0.273,0.629-0.146,1.312,0.34,1.824l6.711,7.078
		l-6.711,7.077c-0.486,0.514-0.613,1.195-0.34,1.825c0.289,0.668,0.961,1.137,1.631,1.137c0.426,0,0.826-0.185,1.156-0.533
		l6.639-7.001l6.641,7.002c0.33,0.348,0.729,0.532,1.156,0.532c0.668,0,1.34-0.467,1.631-1.136
		C86.699,53.629,86.572,52.946,86.086,52.434z"/>
	<path fill="#FCFCFC" d="M58.744,23.246c-0.965,0-1.877,0.311-2.643,0.896l-12.492,8.917h-6.603c-3.065,0-5.558,2.399-5.558,5.35
		v13.898c0,2.949,2.493,5.35,5.558,5.35h6.603l12.502,8.923c0.754,0.578,1.668,0.888,2.633,0.888c2.363,0,4.287-1.871,4.287-4.171
		V27.417C63.031,25.117,61.107,23.246,58.744,23.246z M58.744,26.628c0.426,0,0.887,0.302,0.887,0.789v35.877
		c0,0.487-0.461,0.789-0.887,0.789c-0.207,0-0.402-0.066-0.564-0.192l-12.182-8.677V35.499l12.172-8.671
		C58.342,26.695,58.537,26.628,58.744,26.628z M34.849,38.408c0-1.085,0.968-1.967,2.158-1.967h5.592v17.832h-5.592
		c-1.19,0-2.158-0.883-2.158-1.967V38.408z"/>
</g>
</svg>
