<?xml version="1.0" encoding="utf-8"?>
<!-- Generator: Adobe Illustrator 14.0.0, SVG Export Plug-In . SVG Version: 6.00 Build 43363)  -->
<!DOCTYPE svg PUBLIC "-//W3C//DTD SVG 1.1//EN" "http://www.w3.org/Graphics/SVG/1.1/DTD/svg11.dtd">
<svg version="1.1" id="Layer_1" xmlns="http://www.w3.org/2000/svg" xmlns:xlink="http://www.w3.org/1999/xlink" x="0px" y="0px"
	 width="28.35px" height="42.52px" viewBox="0 0 28.35 42.52" enable-background="new 0 0 28.35 42.52" xml:space="preserve">
<g>
	<linearGradient id="SVGID_1_" gradientUnits="userSpaceOnUse" x1="9.8403" y1="22.0742" x2="17.4365" y2="22.0742">
		<stop  offset="0" style="stop-color:#FFFFFF;stop-opacity:0.95"/>
		<stop  offset="1" style="stop-color:#FFFFFF;stop-opacity:0.95"/>
	</linearGradient>
	<polygon fill="url(#SVGID_1_)" points="9.84,26.516 17.437,20.513 13.766,17.634 9.84,20.759 	"/>
	<linearGradient id="SVGID_2_" gradientUnits="userSpaceOnUse" x1="0" y1="21.2598" x2="28.3467" y2="21.2598">
		<stop  offset="0" style="stop-color:#FFFFFF;stop-opacity:0.95"/>
		<stop  offset="1" style="stop-color:#FFFFFF;stop-opacity:0.95"/>
	</linearGradient>
	<path fill="url(#SVGID_2_)" d="M14.174,0C6.345,0,0,6.328,0,14.13c0,3.554,2.941,9.758,6.143,15.462L6.145,9.097
		c0.023-0.182,0.113-0.328,0.27-0.451c0,0,6.162-4.97,6.338-5.075c0.599-0.398,0.852-0.391,1.278-0.398
		c0.616,0,0.978,0.269,1.753,0.842l7.268,5.781c0.133,0.158,0.133,0.311,0,0.468l-6.571,5.214l6.1,4.776
		c0.045,0.044,0.065,0.092,0.065,0.165c0,0.03-0.001,0.065-0.016,0.093c-0.014,0.031-0.028,0.055-0.05,0.07l-12.445,9.959
		l-2.351,1.904c3.642,6.352,6.39,10.073,6.39,10.073s14.173-20.587,14.173-28.39C28.347,6.328,22.002,0,14.174,0z"/>
	<linearGradient id="SVGID_3_" gradientUnits="userSpaceOnUse" x1="9.8403" y1="11.6802" x2="17.4365" y2="11.6802">
		<stop  offset="0" style="stop-color:#FFFFFF;stop-opacity:0.95"/>
		<stop  offset="1" style="stop-color:#FFFFFF;stop-opacity:0.95"/>
	</linearGradient>
	<polygon fill="url(#SVGID_3_)" points="9.84,16.121 17.437,10.119 13.766,7.239 9.84,10.364 	"/>
</g>
</svg>
